Genre:Drama 
Language:English
IMDb:http://www.imdb.com/title/tt1049402/
Source:DVD


Format : MPEG-4
Format profile : Base Media
Codec ID : isom
File size : 1.08 GiB
Duration : 1h 24mn
Overall bit rate : 1 838 Kbps
Movie name : Howl 2010 LIMITED DvDRip H264 Feel-Free


Video
Format settings, CABAC : Yes
Format settings, ReFrames : 4 frames
Codec ID : avc1
Codec ID/Info : Advanced Video Coding
Duration : 1h 24mn
Bit rate mode : Variable
Bit rate : 1 500 Kbps
Width : 720 pixels
Height : 384 pixels
Display aspect ratio : 1.875
Frame rate mode : Constant
Frame rate : 23.976 fps
Color space : YUV
Chroma subsampling : 4:2:0
Bit depth : 8 bits
Scan type : Progressive
Bits/(Pixel*Frame) : 0.226
Stream size : 893 MiB (80%)


Audio
ID : 2
Format : AAC
Format/Info : Advanced Audio Codec
Format version : Version 4
Format profile : LC
Codec ID : 40
Duration : 1h 24mn
Bit rate mode : Variable
Bit rate : 352.8 Kbps
Channel(s) : 6 channels
Channel positions : Front: L C R, Side: L R, LFE
Sampling rate : 48.0 KHz
Stream size : 215 MiB (19%)


Plot:
As Alan Ginsberg talks about his life and art, his most famous poem is illustrated in animation while the obscenity trial of the work is dramatized.







================================== 
http://thepiratebay.org/user/hiest
==================================